<svg width="31" height="30" viewBox="0 0 31 30" fill="none" xmlns="http://www.w3.org/2000/svg">
<g id="elements">
<path id="Vector" d="M28.7841 6.19475L24.3074 1.71576C24.242 1.65033 24.136 1.65033 24.0706 1.71576L15.5193 10.2895L6.92912 1.73351C6.86372 1.66808 6.75769 1.66808 6.69229 1.73351L2.21555 6.2125C2.15015 6.27793 2.15016 6.38401 2.21555 6.44944L10.8058 15.0055L2.25088 23.5683C2.18549 23.6338 2.18549 23.7399 2.25088 23.8053L6.72763 28.2843C6.79302 28.3497 6.89905 28.3497 6.96445 28.2843L15.5193 19.7214L24.0408 28.2813C24.1062 28.3467 24.2122 28.3467 24.2776 28.2813L28.7543 23.8023C28.8197 23.7369 28.8197 23.6308 28.7543 23.5654L20.2329 15.0055L28.7841 6.43169C28.8495 6.36626 28.8495 6.26018 28.7841 6.19475Z" stroke="#1D4ED8" stroke-width="2.5"/>
</g>
</svg>
