<svg width="33" height="34" viewBox="0 0 33 34" fill="none" xmlns="http://www.w3.org/2000/svg">
<g id="elements">
<path id="Vector" d="M0.666748 2.00159L32.3334 2.00159" stroke="#1D4ED8" stroke-width="2.5" stroke-linejoin="round"/>
<path id="Vector 2" d="M4 2V23.6348L16.3939 31.9716C16.45 32.0094 16.5234 32.0095 16.5797 31.9717L29 23.6348V2" stroke="#1D4ED8" stroke-width="2.5"/>
<path id="Star 2" d="M16.3478 8.79314C16.4026 8.6526 16.601 8.65134 16.6576 8.79118L18.5158 13.3844L23.0402 13.3168C23.1872 13.3146 23.2648 13.4901 23.1643 13.5974L19.9053 17.0754L21.5593 21.9205C21.6092 22.0669 21.4502 22.1964 21.317 22.118L16.5002 19.2819L11.6402 22.1075C11.504 22.1867 11.3442 22.0502 11.401 21.9033L13.2688 17.0754L9.84851 13.4621C9.74549 13.3532 9.82724 13.1743 9.97694 13.181L14.558 13.3844L16.3478 8.79314Z" stroke="#1D4ED8" stroke-width="2.5"/>
</g>
</svg>
