<svg width="41" height="40" viewBox="0 0 41 40" fill="none" xmlns="http://www.w3.org/2000/svg">
<g id="user-group">
<path id="Vector" d="M29.6667 9.16669C31.1613 10.0312 32.1667 11.4827 32.1667 13.3334C32.1667 15.1841 31.1613 16.6355 29.6667 17.5M32.1667 24.1667C35.1334 25.8162 37.1668 29.4348 37.1668 33.3334" stroke="#1D4ED8" stroke-width="2.5" stroke-linecap="round" stroke-linejoin="round"/>
<path id="Vector_2" d="M11.3333 9.16669C9.83875 10.0312 8.83325 11.4827 8.83325 13.3334C8.83325 15.1841 9.83875 16.6355 11.3333 17.5M8.83325 24.1667C5.86662 25.8162 3.83325 29.4348 3.83325 33.3334" stroke="#1D4ED8" stroke-width="2.5" stroke-linecap="round" stroke-linejoin="round"/>
<path id="Vector 9024" d="M21.9583 24.1667H19.0416C13.4037 24.1667 8.83325 29.0169 8.83325 35H32.1666C32.1666 29.0169 27.5962 24.1667 21.9583 24.1667Z" stroke="#1D4ED8" stroke-width="2.5" stroke-linecap="round" stroke-linejoin="round"/>
<ellipse id="Ellipse 2469" cx="20.5001" cy="12.5" rx="5.83333" ry="5.83333" stroke="#1D4ED8" stroke-width="2.5" stroke-linecap="round" stroke-linejoin="round"/>
</g>
</svg>
